<svg width="109" height="33" fill="none" xmlns="http://www.w3.org/2000/svg"><path d="M94.858 19.59v11.167c0 .833.676 1.5 1.52 1.5h3.886c.845 0 1.098-.75 1.098-1.583V19.34c.085-3.5 2.534-6.25 5.406-6.916.676-.167 1.267-.75 1.267-1.5v-3.5c0-.917-.844-1.584-1.689-1.5-6.504.916-11.403 6.666-11.488 13.666zm-41.052 2.667l6.674-14.75c.253-.583.76-.917 1.351-.917h3.801c1.098 0 1.858 1.167 1.352 2.167L56.594 31.34c-.253.5-.76.917-1.352.917h-2.871c-.592 0-1.099-.333-1.352-.917L40.545 8.757c-.422-1 .253-2.167 1.352-2.167h3.8c.592 0 1.099.334 1.352.917l6.758 14.75zm-20.272-6.083c-.507-2.5-2.703-4.667-5.828-4.667-2.957 0-5.322 2-5.913 4.667h11.741zm5.66 5.166H21.793c1.267 3.334 4.054 4.834 6.673 4.834 2.196 0 4.139-1 5.66-2.084.675-.416 1.266-.333 1.858.334l2.196 2.666c.507.75.422 1.417-.17 1.917-3.209 2.583-6.672 3.5-9.544 3.5-7.518 0-13.177-6.167-13.177-13.583 0-7.334 5.575-13.084 12.67-13.084 6.927 0 12.08 5.417 12.586 14.084 0 .916-.507 1.416-1.352 1.416zm46.204-5.166c-.507-2.5-2.703-4.667-5.828-4.667-2.957 0-5.322 2-5.913 4.667h11.74zm5.66 5.166H73.571c1.267 3.334 4.055 4.834 6.673 4.834 2.196 0 4.14-1 5.66-2.084.675-.416 1.267-.333 1.858.334l2.196 2.666c.507.75.422 1.417-.169 1.917-3.21 2.583-6.673 3.5-9.545 3.5-7.517 0-13.177-6.167-13.177-13.583 0-7.334 5.575-13.084 12.67-13.084 6.927 0 12.08 5.417 12.586 14.084 0 .916-.422 1.416-1.267 1.416zM7.01 15.84v-1c0-3.916 2.365-7.166 5.575-7.833.676-.167 1.182-.75 1.182-1.417V1.507c0-.917-.844-1.583-1.689-1.5C5.322.924.084 7.174 0 14.757v16c0 .833.676 1.5 1.52 1.5h3.97c.845 0 1.52-.667 1.52-1.5V21.59h4.224c.845 0 1.52-.666 1.52-1.5v-2.75c0-.833-.675-1.5-1.52-1.5H7.011z" fill="#fff" fill-opacity=".8"/></svg>