<svg xmlns="http://www.w3.org/2000/svg" width="48" height="48"><path fill="#e92a2d" d="M10.72 18.482c.164.233.279.488.345.767l.175-.063-.392-2.42a.896.896 0 01-.243.13.753.753 0 01-.196.047 2.514 2.514 0 01-.158.004H6.576l-.096-.007a.416.416 0 01-.131-.028.718.718 0 01-.193-.147l-.421 2.42.175.042c.035-.158.111-.349.228-.572.097-.186.195-.328.292-.426a2.07 2.07 0 01.544-.394 1.43 1.43 0 01.602-.115v4.975c0 .199-.008.348-.023.445a.57.57 0 01-.146.285c-.136.153-.28.23-.432.23a.356.356 0 00-.082.007v.265h3.203v-.272a.793.793 0 01-.31-.052.503.503 0 01-.226-.203.87.87 0 01-.134-.348 2.65 2.65 0 01-.032-.439v-.139l-.006-4.751c.28 0 .527.062.739.185.212.122.41.314.593.574z"/><path fill="#e92a2d" d="M24.315 23.93v-.272a.612.612 0 01-.225-.087.386.386 0 01-.136-.171.934.934 0 01-.069-.233 1.787 1.787 0 01-.02-.296l.006-4.667 2.683 3.762c.156.218.261.39.315.516.082.181.122.374.122.578 0 .307-.095.497-.286.571a.43.43 0 01-.152.028v.272h1.765v-.272a.512.512 0 01-.225-.08.44.44 0 01-.158-.178.792.792 0 01-.073-.261 2.23 2.23 0 01-.018-.261v-4.641c0-.13.009-.273.026-.428a.884.884 0 01.132-.394.388.388 0 01.193-.167l.14-.028v-.272H26.57v.272a.724.724 0 01.239.073.455.455 0 01.168.167.643.643 0 01.089.213c.012.065.018.16.018.286v1.66l-1.175-1.758a.991.991 0 01-.082-.147.54.54 0 01-.053-.216.26.26 0 01.041-.136.472.472 0 01.085-.105.147.147 0 01.102-.038v-.272h-3.343v.272a.51.51 0 01.339.195c.039.051.066.144.082.279.016.135.023.276.023.425v4.445c0 .237-.018.449-.053.637-.034.18-.089.301-.165.364a.5.5 0 01-.048-.036.68.68 0 01-.146-.206l-.064-.132-1.52-5.442a1.964 1.964 0 00-.041-.139.502.502 0 01-.018-.125c0-.037.008-.074.023-.111.035-.079.099-.118.193-.118v-.307h-2.589v.265a.463.463 0 01.079.035.224.224 0 01.076.087.329.329 0 01.038.164.586.586 0 01-.023.153 2.487 2.487 0 01-.053.167l-1.619 4.959a1.767 1.767 0 01-.146.359.707.707 0 01-.04.061 5.56 5.56 0 01-.134-.357c-.21-.622-.36-1.024-.45-1.205a18.092 18.092 0 00-.482-.902 16.432 16.432 0 00-.541-.868c.031 0 .144-.067.339-.202.257-.181.466-.379.625-.592.222-.302.333-.625.333-.969 0-.037-.004-.097-.012-.181-.035-.316-.172-.557-.412-.725-.24-.167-.587-.251-1.043-.251h-4.091v.272c.082 0 .152.017.21.052a.44.44 0 01.155.192c.045.093.075.262.091.509.004.079.006.19.006.334l-.012 4.564c0 .158-.012.286-.035.383a.513.513 0 01-.152.258.672.672 0 01-.149.115.355.355 0 01-.161.031v.272h2.788v-.272a1.355 1.355 0 01-.205-.063.563.563 0 01-.181-.188.637.637 0 01-.096-.248 2.04 2.04 0 01-.026-.366v-1.967l.31-.174.354.579c.119.195.217.374.295.537.265.567.427.928.485 1.081.086.228.129.404.129.53 0 .093-.023.156-.07.188a.641.641 0 01-.286.112v.251h3.821v-.258a.538.538 0 01-.199-.08.528.528 0 01-.158-.185.475.475 0 01-.029-.202c0-.2.025-.383.076-.551l.412-1.417c.133 0 .301.022.506.066.205.044.36.094.465.15.269.144.513.362.731.654.203.269.318.513.345.731.008.046.012.111.012.195 0 .251-.078.432-.234.543a.784.784 0 01-.228.084v.271h4.226zm-9.955-4.506a2.282 2.282 0 01-.783.53l-.205.077V18.28a.95.95 0 01.044-.303.307.307 0 01.155-.185.956.956 0 01.427-.098c.222 0 .405.06.549.181.167.139.251.33.251.572.001.349-.145.675-.438.977zm5.359 1.222a2.206 2.206 0 00-.443-.216 1.38 1.38 0 00-.309-.077 2.484 2.484 0 00-.175-.007l.558-1.96.654 2.47a2.113 2.113 0 00-.285-.21zm19.255 3.298c.082.009.156.026.222.049l.199.07.76-2.671-.199-.119c-.066.307-.222.625-.468.956a2.871 2.871 0 01-.684.69 2.22 2.22 0 01-.529.258 1.763 1.763 0 01-.564.098c-.168 0-.316-.029-.444-.087a.65.65 0 01-.298-.262.991.991 0 01-.134-.335 2.272 2.272 0 01-.029-.391v-2.274h.748c.086 0 .191.031.315.094.125.063.236.145.333.248.097.102.185.242.263.419.062.144.101.263.117.356l.222-.043-.392-2.657-.175.063v.105c0 .2-.066.37-.198.509a.562.562 0 01-.207.136.655.655 0 01-.224.038h-.821v-.76c0-.144.016-.27.05-.377a.604.604 0 01.172-.272c.125-.112.318-.167.579-.167.234 0 .471.046.713.139.242.093.45.23.625.412.304.321.501.711.59 1.172l.193-.174-.427-2.358a.85.85 0 01-.158.06c-.008 0-.06.009-.158.026a2.659 2.659 0 01-.497.053h-3.962v.272c.086 0 .152.008.199.024a.311.311 0 01.14.119.43.43 0 01.085.188c.01.063.015.155.015.276v5.029c0 .144-.009.262-.026.352a.697.697 0 01-.12.269.55.55 0 01-.12.122.791.791 0 01-.225.066v.265h4.261c.09 0 .176.004.258.014z"/><path fill="#e92a2d" d="M33.914 20.81c0-.144.009-.262.026-.355a.586.586 0 01.12-.258c.117-.158.255-.237.415-.237v-.237h-2.8v.258h.093c.113 0 .214.051.304.153a.49.49 0 01.097.174c.018.06.026.169.026.327v1.663c0 .274-.051.492-.152.654-.121.19-.308.285-.561.285-.569 0-1.029-.339-1.379-1.018a4.094 4.094 0 01-.438-2.176c.054-.683.205-1.241.45-1.674.296-.521.699-.781 1.21-.781.327 0 .699.114 1.116.343.167.094.335.259.503.497.218.308.36.574.427.799l.146-.091-.239-2.399c-.07.065-.138.13-.205.195a.6.6 0 01-.333.084 1.56 1.56 0 01-.397-.056 7.15 7.15 0 00-.748-.15 5.153 5.153 0 00-.701-.045c-.46 0-.882.069-1.268.206a2.658 2.658 0 00-1.017.652 3.005 3.005 0 00-.533.762v3.525c.096.225.209.437.34.637.358.544.797.921 1.315 1.13.417.167.976.251 1.677.251h2.922v-.265a.729.729 0 01-.213-.094.431.431 0 01-.131-.178.729.729 0 01-.07-.244V20.81zM.449 25.523a.682.682 0 01.148-.013c.437.07.865.14 1.284.21.419.07.796.105 1.132.105.419 0 1.238-.093 1.698-.28.561-.227.96-.548 1.301-.962.414-.507.634-1.116.634-1.828 0-.54-.121-1.076-.42-1.531a1.816 1.816 0 00-.485-.488c-.345-.241-.741-.393-1.137-.532a75.428 75.428 0 01-1.351-.493c-.316-.118-.641-.18-.887-.432-.361-.37-.262-.973.068-1.328.154-.165.422-.293.638-.344.784-.185 1.342.18 2.064.879.17.165.35.536.35.536l.401-2.252a6.188 6.188 0 00-.321.219c-.154.119-.413-.035-.567-.091a5.647 5.647 0 00-1.947-.344c-.347 0-.726.025-1.064.104a2.828 2.828 0 00-.732.31c-.712.411-1.053 1.14-1.206 1.918-.094.476-.067.969.128 1.417.278.637.771 1.179 1.418 1.446l2.206.735c.159.053.344.209.441.343.35.484.181 1.289-.251 1.666-.676.592-1.893.374-2.56-.128-.366-.275-.559-.689-.715-1.107a9.413 9.413 0 01-.166-.483H.223L0 25.825c.051-.047.258-.179.311-.223a.357.357 0 01.138-.079zm45.502-3.81a21.256 21.256 0 00-.691-1.112c.04 0 .184-.086.433-.259a3.49 3.49 0 00.799-.759 2.06 2.06 0 00.426-1.242c0-.047-.005-.125-.015-.232-.045-.405-.22-.715-.527-.929-.306-.214-.751-.322-1.334-.322h-5.23v.349c.105 0 .194.022.269.067a.555.555 0 01.198.246c.057.119.096.336.116.652.005.101.008.244.008.429l-.015 5.851c0 .202-.015.366-.045.491a.675.675 0 01-.194.331.849.849 0 01-.19.147.448.448 0 01-.205.04v.349h3.564v-.35a1.806 1.806 0 01-.261-.08.746.746 0 01-.232-.241.826.826 0 01-.123-.318 2.719 2.719 0 01-.034-.469V21.83l.396-.223.452.742c.152.25.278.48.377.688.339.727.545 1.189.62 1.386.109.292.164.519.164.68 0 .119-.03.2-.09.242a.809.809 0 01-.366.143v.322h3.765v-.304a1.442 1.442 0 01-.351-.116c-.129-.065-.294-.39-.493-.974-.269-.798-.461-1.313-.575-1.545a22.92 22.92 0 00-.616-1.158zm-1.999-1.68a2.932 2.932 0 01-1.001.68l-.261.098v-2.244c0-.149.019-.279.056-.389a.393.393 0 01.198-.237c.169-.083.351-.125.545-.125.284 0 .518.078.702.232.214.179.321.423.321.733 0 .447-.186.864-.56 1.252zm-31.296 5.166a.91.91 0 01-.596.183H8.384l-.096-.007a.43.43 0 01-.132-.028.7.7 0 01-.193-.148l-.421 2.44.175.042c.035-.159.111-.352.228-.577.097-.188.195-.331.292-.429.195-.187.376-.32.544-.397a1.43 1.43 0 01.602-.116v5.015c0 .201-.008.351-.023.449a.582.582 0 01-.146.288c-.136.154-.281.231-.433.231a.356.356 0 00-.082.007v.267h3.203v-.274a.774.774 0 01-.31-.053.53.53 0 01-.225-.207.883.883 0 01-.134-.351 2.812 2.812 0 01-.032-.442v-.14l-.006-4.79c.281 0 .527.062.739.186.212.124.41.318.593.58.164.234.279.492.345.773l.175-.064-.391-2.438z"/><path fill="#e92a2d" d="M16.529 25.949c.07.014.123.025.159.034.098.032.164.075.2.129.051.082.087.17.109.266.021.095.032.266.032.511v.627h-1.755v-.647c0-.313.061-.563.182-.75a.335.335 0 01.176-.133.602.602 0 01.182-.038v-.266h-2.829v.266c.09.014.164.035.223.065s.112.082.158.157a.605.605 0 01.088.221c.012.073.018.184.018.334v.095l.012 4.457c0 .15-.02.308-.059.473-.039.166-.078.269-.117.31a.885.885 0 01-.156.133.708.708 0 01-.161.051v.259h2.806v-.266a.478.478 0 01-.399-.211.58.58 0 01-.103-.224 1.661 1.661 0 01-.021-.299V28.21h1.743v3.306c0 .109-.009.205-.026.289a.627.627 0 01-.097.228.46.46 0 01-.393.204v.266h2.847v-.266a.44.44 0 01-.352-.15.584.584 0 01-.097-.248 1.882 1.882 0 01-.032-.364l-.012-4.629c0-.15.009-.279.026-.388a.837.837 0 01.109-.3.379.379 0 01.211-.177c.051-.009.104-.021.159-.034v-.265h-2.829v.267zm3.142 0c.11.018.194.04.252.065a.289.289 0 01.135.112.747.747 0 01.112.306c.016.114.023.268.023.463v4.602c0 .113-.009.211-.026.293a.583.583 0 01-.103.225c-.106.15-.237.225-.393.225v.266h2.847v-.266a.394.394 0 01-.2-.051.586.586 0 01-.153-.126.535.535 0 01-.097-.242 1.882 1.882 0 01-.032-.364v-4.582c0-.168.007-.305.021-.412a.695.695 0 01.103-.289.456.456 0 01.123-.14.767.767 0 01.247-.085v-.265h-2.859v.265zm8.45 6.039a.747.747 0 01-.073-.255 2.137 2.137 0 01-.018-.255v-4.534c0-.127.009-.267.026-.419a.867.867 0 01.132-.385.385.385 0 01.194-.163l.141-.027v-.266H26.75v.266a.77.77 0 01.241.072.447.447 0 01.169.164.614.614 0 01.089.208c.012.064.018.157.018.279v1.622l-1.18-1.717a.947.947 0 01-.082-.143.52.52 0 01-.053-.211.25.25 0 01.041-.133.45.45 0 01.085-.102.154.154 0 01.103-.038v-.266h-3.358v.266a.519.519 0 01.341.191c.039.05.066.141.082.272.016.132.023.27.023.415v4.343c0 .231-.018.439-.053.623s-.094.305-.176.364a.385.385 0 01-.112.058 1.387 1.387 0 01-.153.024v.265h1.708v-.266a.628.628 0 01-.226-.085.386.386 0 01-.136-.167.955.955 0 01-.07-.228 1.705 1.705 0 01-.02-.289l.006-4.56 2.695 3.675c.156.213.262.381.316.504.082.177.123.365.123.565 0 .3-.096.486-.288.558a.457.457 0 01-.153.027v.265h1.773v-.265a.53.53 0 01-.226-.078.46.46 0 01-.156-.174zm10.799-3.531l-1.409-.525c-.246-.091-.429-.209-.546-.354a.628.628 0 01-.141-.402.999.999 0 01.117-.477.535.535 0 01.252-.262.879.879 0 01.399-.085c.176 0 .36.036.552.109.192.073.362.168.511.286.184.145.354.388.511.729.066.141.106.245.117.313l.211-.075-.2-2.215a2.369 2.369 0 00-.164.109 1.382 1.382 0 01-.27.123.223.223 0 01-.065.007 63.061 63.061 0 01-.775-.177 3 3 0 00-.681-.088c-.156 0-.305.016-.446.048-.579.136-1.047.388-1.403.756a2.099 2.099 0 00-.599 1.513c0 .432.113.8.34 1.104.207.277.497.486.869.627l1.55.593a.705.705 0 01.338.269.769.769 0 01.126.44.93.93 0 01-.012.17.94.94 0 01-.387.634c-.211.15-.466.225-.763.225-.27 0-.547-.068-.831-.204a2.142 2.142 0 01-.737-.586 2.46 2.46 0 01-.382-.722 2.357 2.357 0 01-.147-.559l-.211.027.229 2.821c.043-.036.087-.072.132-.106a.31.31 0 01.118-.061.629.629 0 01.126-.01c.372.054.736.109 1.092.163.356.054.677.082.963.082.356 0 .73-.073 1.121-.218.477-.177.861-.427 1.15-.75.352-.395.528-.87.528-1.424 0-.463-.105-.852-.314-1.165a1.746 1.746 0 00-.869-.683z"/><path fill="#e92a2d" d="M34.247 31.969a.735.735 0 01-.07-.244v-2.34c0-.144.009-.262.026-.355a.586.586 0 01.12-.258c.117-.158.255-.237.415-.237v-.237h-2.8v.258h.093c.113 0 .214.051.304.153a.49.49 0 01.097.174c.018.06.026.169.026.327v1.663c0 .274-.051.492-.152.654-.121.19-.308.285-.561.285-.569 0-1.029-.339-1.379-1.018a4.094 4.094 0 01-.438-2.176c.054-.684.205-1.242.45-1.674.296-.521.699-.781 1.21-.781.327 0 .699.114 1.116.343.167.093.335.259.503.497.218.308.36.574.427.798l.146-.091-.239-2.399c-.07.065-.138.13-.205.195a.6.6 0 01-.333.084c-.121 0-.253-.019-.397-.056a7.15 7.15 0 00-.748-.15 5.153 5.153 0 00-.701-.045c-.46 0-.882.069-1.268.206a2.658 2.658 0 00-1.017.652 3.005 3.005 0 00-.533.762v3.525c.096.225.209.437.34.637.358.544.797.921 1.315 1.13.417.167.976.251 1.677.251h2.922v-.265a.729.729 0 01-.213-.094.38.38 0 01-.133-.174zM0 27.081h7v.637H0zm40 0h8v.637h-8zM0 15.304h46.98v.577H0z"/></svg>