<svg width="154" height="68" fill="none" xmlns="http://www.w3.org/2000/svg"><g clip-path="url(#clip0_1415_562)"><path d="M28.468 12.864c.077 2.188 1.701 3.589 4.45 3.589h.24c2.13 0 3.364-1.123 3.364-2.515 0-1.274-.696-2.02-2.44-2.387l-3.163-.654c-3.133-.67-4.719-2.49-4.719-5.37 0-2.881 2.706-5.581 6.863-5.527 4.257-.04 6.915 2.49 6.93 6.058h-3.177c-.125-2.006-1.64-3.188-3.7-3.188h-.26c-2.09 0-3.46 1.143-3.46 2.559 0 1.313.764 2.02 2.374 2.348l2.854.576c3.292.669 5.099 2.412 5.099 5.37.038 3.262-2.725 5.625-7.011 5.586-4.72 0-7.276-2.441-7.406-6.464l3.162.02zM42.414.264h13.783v2.885H45.59v4.823h9.02v2.886h-9.02v5.336h10.865v2.87H42.414V.265zM66.02 0c4.388-.04 7.406 2.69 7.612 6.346h-3.176a3.921 3.921 0 00-1.403-2.529 4.455 4.455 0 00-2.884-.932H65.9c-3.33-.049-5.536 2.793-5.498 6.791-.038 3.999 2.168 6.835 5.498 6.791h.27a4.515 4.515 0 002.883-.903 3.873 3.873 0 001.393-2.543h3.177c-.221 3.71-3.215 6.346-7.612 6.346-5.45.05-8.843-4.013-8.79-9.666-.033-5.664 3.33-9.765 8.8-9.701zm9.972.263H84.3c3.23-.039 5.766 2.217 5.733 5.112 0 2.373-1.125 4.052-3.1 4.745 2.014 0 2.84.855 2.84 2.652v6.293h-3.176v-5.483c0-1.416-.37-1.807-1.764-1.807h-5.666v7.29h-3.176V.263zm7.535 8.666c2.129 0 3.364-1.152 3.364-2.988S85.727 3.15 83.526 3.15h-4.359v5.78h4.359zM92.983.263h13.783V3.15h-10.61v4.823h9.019v2.886h-9.02v5.336h10.866v2.87H92.983V.265zm21.308 2.886h-6.492V.263h16.156V3.15h-6.502v15.916h-3.162V3.149zM46.706 24.6v18.802h-3.124V27.828l-4.97 15.575h-3.68l-5.094-15.54v15.54h-3.124V24.6h5.046l5.032 15.404L41.684 24.6h5.022zm3.407 0h13.801v2.88H53.29v4.83h9.02v2.885h-9.02v5.326h10.866v2.88H50.113v-18.8zm16.204 0h6.454c5.382-.039 9.083 3.447 9.044 9.398.053 5.952-3.6 9.443-8.967 9.404h-6.53V24.6zm6.209 15.921c1.951 0 3.446-.527 4.517-1.587 1.072-1.059 1.615-2.704 1.615-4.945s-.543-3.906-1.615-4.931c-1.071-1.026-2.566-1.587-4.517-1.587h-3.018v13.05h3.018zm11.74-15.92h3.196v18.8h-3.177l-.019-18.8zm17.747 14.197h-8.218l-1.744 4.604H88.75L96.078 24.6h3.845l7.208 18.802h-3.33l-1.788-4.604zm-1.096-2.886L97.9 27.97l-3.009 7.943h6.026zM41.943 48.934v18.807H37.72l-7.833-14.554V67.74h-3.172V48.934h4.23L38.78 63.47V48.934h3.162zm3.412 0h13.783v2.886H48.536v4.814h9.02v2.88h-9.02v5.336h10.866v2.876H45.355V48.934zm21.308 2.886h-6.492v-2.886h16.161v2.886h-6.507v15.92h-3.162V51.82zm34.173-2.886l-4.541 18.807h-4.167l-3.19-14.584-3.24 14.584h-4.166l-4.518-18.807h3.278l3.431 15.33L87 48.935h3.98l3.248 15.345 3.316-15.345h3.292zm9.212-.258c5.152-.069 8.919 3.734 8.866 9.661.053 5.928-3.714 9.73-8.866 9.662-5.161.069-8.943-3.734-8.876-9.661-.067-5.928 3.715-9.73 8.876-9.662zm.13 16.453c3.364 0 5.574-2.568 5.574-6.792 0-4.223-2.205-6.79-5.574-6.79h-.26c-3.364 0-5.574 2.567-5.574 6.79 0 4.224 2.206 6.792 5.574 6.792h.26zm11.125-16.195h8.313c3.225-.039 5.767 2.217 5.729 5.117 0 2.373-1.125 4.052-3.095 4.745 2.009 0 2.835.855 2.835 2.651v6.294h-3.172v-5.483c0-1.416-.374-1.811-1.768-1.811h-5.68v7.294h-3.177l.015-18.807zm7.54 8.676c2.129 0 3.34-1.157 3.34-2.993 0-1.835-1.163-2.792-3.34-2.792h-4.378v5.785h4.378zm15.387 1.465l-2.763 2.93v5.745h-3.172V48.934h3.172v8.788l8.391-8.788h4.003l-7.348 7.753L154 67.741h-3.936l-5.834-8.666zM3.181 17.522l3.667-6.445H0v-3.09h6.848L3.181 1.542 5.863 0l3.666 6.444L13.191 0l2.62 1.542-3.662 6.445h6.848v3.09h-6.848l3.661 6.445-2.676 1.543-3.667-6.445-3.662 6.445-2.624-1.543z" fill="#fff" fill-opacity=".8"/></g><defs><clipPath id="clip0_1415_562"><path fill="#fff" d="M0 0h154v68H0z"/></clipPath></defs></svg>