<svg width="105" height="22" fill="none" xmlns="http://www.w3.org/2000/svg"><path d="M69.816 0H65.4v19.112c4.001.107 8.002.267 12.004.48v-3.355c-2.553-.106-5.037-.266-7.59-.319V0zM105 0h-4.829l-3.174 5.75L94.1 0h-4.76l5.174 10.222-5.726 10.062c1.586.106 3.104.266 4.622.372l3.242-5.856 3.243 6.442c1.655.16 3.38.32 5.036.532l-5.726-11.5L105 0zM50.223 18.953h4.416V11.18h6.002V7.826h-6.002V3.407h7.933V0H50.223v18.953zM33.735 3.407h4.622v15.759c1.45-.054 2.967-.054 4.416-.107V3.407h4.622V0h-13.66v3.407zM18.627 20.124c4.07-.266 8.14-.533 12.28-.692v-3.354c-2.622.106-5.243.266-7.865.426v-5.111c1.725 0 4.001-.053 6.002-.053V7.986c-1.587 0-4.14 0-6.002.053V3.407h7.865V0h-12.28v20.124zM9.934 12.35L4.208 0H0v21.774c1.449-.16 2.966-.32 4.415-.479V9.476l5.105 11.34c1.587-.16 3.243-.266 4.83-.426V0H9.934v12.351zm71.127 7.453c1.449.107 2.966.16 4.415.267V0h-4.415v19.804z" fill="#fff" fill-opacity=".8"/></svg>